<svg xmlns="http://www.w3.org/2000/svg" xmlns:xlink="http://www.w3.org/1999/xlink" zoomAndPan="magnify" preserveAspectRatio="xMidYMid meet" version="1.0" viewBox="3.14 51.45 369 272.25"><defs><clipPath id="35c22fbd82"><path d="M 3.140625 51.449219 L 372.140625 51.449219 L 372.140625 323.699219 L 3.140625 323.699219 Z M 3.140625 51.449219 " clip-rule="nonzero"/></clipPath></defs><g clip-path="url(#35c22fbd82)"><path fill="#bb9979" d="M 152.613281 161.246094 L 112.894531 121.539062 L 53.726562 180.699219 L 45.03125 172.007812 L 112.894531 104.15625 L 161.308594 152.554688 L 262.371094 51.519531 L 372.125 161.246094 L 352.667969 180.699219 L 343.972656 172.007812 L 354.738281 161.246094 L 262.371094 68.902344 L 95.265625 235.964844 L 112.894531 253.589844 C 162.566406 203.933594 212.234375 154.269531 261.910156 104.609375 L 262.367188 104.15625 L 372.121094 213.882812 L 262.371094 323.617188 L 194.503906 255.761719 L 203.195312 247.070312 L 262.371094 306.230469 L 354.738281 213.882812 L 288.695312 147.859375 L 222.648438 213.890625 L 262.367188 253.597656 L 321.535156 194.441406 L 330.234375 203.128906 L 262.371094 270.976562 L 213.960938 222.574219 L 112.894531 323.617188 L 3.140625 213.890625 L 22.59375 194.441406 L 31.289062 203.132812 L 20.527344 213.886719 L 112.890625 306.238281 L 279.992188 139.171875 L 262.359375 121.546875 C 212.691406 171.203125 163.015625 220.867188 113.34375 270.527344 L 112.890625 270.980469 L 3.140625 161.246094 L 112.894531 51.519531 L 180.761719 119.367188 L 172.066406 128.058594 L 112.894531 68.902344 L 20.53125 161.246094 L 86.570312 227.273438 Z M 152.613281 161.246094 " fill-opacity="1" fill-rule="evenodd"/></g></svg>